<?xml version="1.0" encoding="UTF-8" standalone="no"?>
<svg
   xmlns:osb="http://www.openswatchbook.org/uri/2009/osb"
   xmlns:dc="http://purl.org/dc/elements/1.1/"
   xmlns:cc="http://creativecommons.org/ns#"
   xmlns:rdf="http://www.w3.org/1999/02/22-rdf-syntax-ns#"
   xmlns:svg="http://www.w3.org/2000/svg"
   xmlns="http://www.w3.org/2000/svg"
   xmlns:xlink="http://www.w3.org/1999/xlink"
   xmlns:sodipodi="http://sodipodi.sourceforge.net/DTD/sodipodi-0.dtd"
   xmlns:inkscape="http://www.inkscape.org/namespaces/inkscape"
   viewBox="0 0 348 348"
   fill="none"
   version="1.1"
   id="svg26"
   sodipodi:docname="Touhou Identification.svg"
   inkscape:version="1.0.1 (3bc2e813f5, 2020-09-07)">
  <metadata
     id="metadata30">
    <rdf:RDF>
      <cc:Work
         rdf:about="">
        <dc:format>image/svg+xml</dc:format>
        <dc:type
           rdf:resource="http://purl.org/dc/dcmitype/StillImage" />
      </cc:Work>
    </rdf:RDF>
  </metadata>
  <sodipodi:namedview
     pagecolor="#ffffff"
     bordercolor="#666666"
     borderopacity="1"
     objecttolerance="10"
     gridtolerance="10"
     guidetolerance="10"
     inkscape:pageopacity="0"
     inkscape:pageshadow="2"
     inkscape:window-width="1366"
     inkscape:window-height="705"
     id="namedview28"
     showgrid="false"
     inkscape:zoom="1.545977"
     inkscape:cx="174"
     inkscape:cy="148.12639"
     inkscape:window-x="-8"
     inkscape:window-y="-8"
     inkscape:window-maximized="1"
     inkscape:current-layer="svg26" />
  <defs
     id="defs6">
    <linearGradient
       id="a"
       osb:paint="solid">
      <stop
         offset="0"
         id="stop2" />
    </linearGradient>
    <linearGradient
       xlink:href="#a"
       id="b"
       x1="-140.746"
       y1="132.443"
       x2="-101.21"
       y2="132.443"
       gradientUnits="userSpaceOnUse"
       gradientTransform="matrix(3.96124 0 0 2.7875 570.59 -271.233)" />
    <linearGradient
       xlink:href="#a"
       id="b-3"
       x1="-140.746"
       y1="132.44299"
       x2="-101.21"
       y2="132.44299"
       gradientUnits="userSpaceOnUse"
       gradientTransform="matrix(1.9265584,0,0,1.3557072,518.00407,-37.00035)" />
  </defs>
  <path
     d="M5.079 5.776h336.913v337.67H5.08z"
     stroke-width="2"
     stroke="#000"
     id="path8" />
  <path
     d="M282.734 40.554c0-8.376 6.966-15.165 15.56-15.165 4.126 0 8.084 1.597 11.001 4.441 2.918 2.844 4.558 6.702 4.558 10.724 0 8.376-6.966 15.165-15.56 15.165-8.593 0-15.559-6.79-15.559-15.165z"
     stroke-width="2"
     stroke="#000"
     id="path10" />
  <path
     d="M13.6 197.247h320.8v21.8H13.6z"
     fill="#fff"
     stroke="#000"
     stroke-width="2.29"
     id="path12" />
  <path
     d="M14.388 332.013h319.24V226.23H14.388zm.008-84.623h319.24m-319.24 21.16h319.24m-319.24 21.16h319.24m-319.24 21.151h319.24M35.548 226.237v21.152m21.16-21.152v21.152m21.152-21.152v21.152m21.152-21.152v21.152m21.16-21.152v21.152m21.152-21.152v21.152m21.16-21.152v21.152m21.152-21.152v21.152m21.152-21.152v21.152m0-21.152v21.152m21.152-21.152v21.152m21.16-21.152v21.152m21.16-21.152v21.152m21.152-21.152v21.152m-244.264.001v21.16m21.16-21.16v21.16m21.152-21.16v21.16m21.152-21.16v21.16m21.16-21.16v21.16m21.152-21.16v21.16m21.16-21.16v21.16m21.152-21.16v21.16m21.152-21.16v21.16m21.152-21.16v21.16m21.16-21.16v21.16m21.16-21.16v21.16m21.152-21.16v21.16m-247.816 0v21.15m21.152-21.15v21.15m21.16-21.15v21.15m21.152-21.15v21.15m21.152-21.15v21.15m21.16-21.15v21.15m21.152-21.15v21.15m21.16-21.15v21.15m21.152-21.15v21.15m21.152-21.15v21.15m21.152-21.15v21.15m21.16-21.15v21.15m-223.104.01v21.151m21.152-21.151v21.151m21.16-21.151v21.151m21.152-21.151v21.151m21.152-21.151v21.151m21.16-21.151v21.151m21.152-21.151v21.151m21.16-21.151v21.151m21.152-21.151v21.151m21.152-21.151v21.151m21.152-21.151v21.151m-227.192 0v21.152m21.16-21.152v21.152m232.704-21.152v21.152M256.7 310.861v21.152m21.16-21.152v21.152M98.308 310.861v21.152M224.7 310.861v21.152"
     stroke-width="2"
     fill="#fff"
     stroke="#000"
     id="path14" />
  <path
     d="m 186.85232,23.8725 c 0,-5.313 4.165,-9.62 9.303,-9.62 2.467,0 4.833,1.014 6.577,2.818 1.744,1.804 2.725,4.25 2.725,6.802 0,5.313 -4.165,9.619 -9.303,9.619 -5.137,0 -9.302,-4.307 -9.302,-9.62 z"
     stroke-width="1.232"
     stroke="#000000"
     id="path16" />
  <path
     stroke="url(#b)"
     stroke-width="3.323"
     d="M13.063 15.298h156.609v165.307H13.063z"
     id="path24" />
  <path
     d="m 186.85232,97.952007 c 0,-5.313 4.165,-9.62 9.303,-9.62 2.467,0 4.833,1.014 6.577,2.818 1.744,1.804 2.725,4.25 2.725,6.802 0,5.313003 -4.165,9.619003 -9.303,9.619003 -5.137,0 -9.302,-4.307 -9.302,-9.620003 z"
     stroke-width="1.232"
     stroke="#000000"
     id="path16-3" />
  <path
     d="m 186.85232,172.0315 c 0,-5.313 4.165,-9.62 9.303,-9.62 2.467,0 4.833,1.014 6.577,2.818 1.744,1.804 2.725,4.25 2.725,6.802 0,5.313 -4.165,9.619 -9.303,9.619 -5.137,0 -9.302,-4.307 -9.302,-9.62 z"
     stroke-width="1.232"
     stroke="#000000"
     id="path16-9" />
  <path
     stroke="url(#b)"
     stroke-width="1.61614"
     d="m 246.84951,102.35468 h 76.16715 v 80.39743 h -76.16715 z"
     id="path24-3"
     style="stroke:url(#b-3)" />
</svg>
